<?xml version="1.0" encoding="UTF-8"?><svg id="_レイヤー_1" xmlns="http://www.w3.org/2000/svg" xmlns:xlink="http://www.w3.org/1999/xlink" viewBox="0 0 186.81 141.25"><defs><style>.cls-1{opacity:.25;}.cls-1,.cls-2{isolation:isolate;}.cls-1,.cls-3,.cls-4{stroke-width:3px;}.cls-1,.cls-4{fill:none;stroke:rgba(111,167,201,.35);}.cls-5{fill:#172c45;}.cls-6{fill:url(#_名称未設定グラデーション_4);}.cls-3{fill:url(#_名称未設定グラデーション_3);stroke:#0b0f13;}.cls-7{fill:rgba(255,255,255,.65);}</style><linearGradient id="_名称未設定グラデーション_4" x1="-307.65" y1="388.68" x2="-306.84" y2="388.68" gradientTransform="translate(35780.73 45181.71) scale(116 -116)" gradientUnits="userSpaceOnUse"><stop offset="0" stop-color="#d9d9d9"/><stop offset="1" stop-color="#bdbdbd"/></linearGradient><radialGradient id="_名称未設定グラデーション_3" cx="-307.08" cy="388.54" fx="-307.08" fy="388.54" r=".48" gradientTransform="translate(32076.25 40502.07) scale(104 -104)" gradientUnits="userSpaceOnUse"><stop offset="0" stop-color="#8fd0ff" stop-opacity=".9"/><stop offset=".45" stop-color="#244a66" stop-opacity=".95"/><stop offset="1" stop-color="#101820"/></radialGradient></defs><g class="cls-2"><path class="cls-5" d="M33.41,0l25.24,96.88h.3L82.84,0h33.41v140.88h-22.22V41.04h-.3l-26.45,99.84h-18.29L22.52,42.03h-.3v98.85H0V0h33.41Z"/></g><circle class="cls-6" cx="139.98" cy="94.41" r="46.83"/><circle class="cls-3" cx="139.98" cy="94.41" r="41.99"/><path class="cls-4" d="M139.98,65.34l25.03,14.53v29.07l-25.03,14.53-25.03-14.53v-29.07l25.03-14.53Z"/><path class="cls-1" d="M139.98,65.34l25.03,14.53-50.06,29.07,25.03,14.53,25.03-14.53-50.06-29.07,25.03-14.53Z"/><circle class="cls-7" cx="125.44" cy="79.88" r="8.07"/></svg>