<?xml version="1.0" encoding="UTF-8"?><svg id="uuid-b781ad6b-ef84-47ad-ba48-61cd875f194a" xmlns="http://www.w3.org/2000/svg" xmlns:xlink="http://www.w3.org/1999/xlink" viewBox="0 0 716.12 240.92"><defs><style>.uuid-c52edf76-21c0-497b-9291-4328503d6cb8{opacity:.25;}.uuid-c52edf76-21c0-497b-9291-4328503d6cb8,.uuid-c19fd0e0-d1d8-4561-b44d-0e64a216e15d,.uuid-8eeced3a-c1ce-464d-97d1-934e36525ca0{stroke-width:3px;}.uuid-c52edf76-21c0-497b-9291-4328503d6cb8,.uuid-e81453ad-a2f3-4bb4-a199-4dbd5917ffb5{isolation:isolate;}.uuid-c52edf76-21c0-497b-9291-4328503d6cb8,.uuid-8eeced3a-c1ce-464d-97d1-934e36525ca0{fill:none;stroke:rgba(111,167,201,.35);}.uuid-c19fd0e0-d1d8-4561-b44d-0e64a216e15d{fill:url(#uuid-33d9d8de-e067-465a-8016-7a3734bae626);stroke:#0b0f13;}.uuid-21776849-7112-4aa5-9c9c-1e163f2486f6{fill:url(#uuid-e72094b1-7e13-4350-bff5-d19cf26dc434);}.uuid-3f03d2cc-788f-42c3-8dfb-16a18e4611e1{fill:#222;}.uuid-063ba646-9aa2-4795-b3ec-8c24d91c58d2{fill:rgba(255,255,255,.65);}</style><linearGradient id="uuid-e72094b1-7e13-4350-bff5-d19cf26dc434" x1="-50.32" y1="419.05" x2="-49.37" y2="419.05" gradientTransform="translate(5977.9 48730.7) scale(116 -116)" gradientUnits="userSpaceOnUse"><stop offset="0" stop-color="#d9d9d9"/><stop offset="1" stop-color="#bdbdbd"/></linearGradient><radialGradient id="uuid-33d9d8de-e067-465a-8016-7a3734bae626" cx="-49.88" cy="418.9" fx="-49.88" fy="418.9" r=".57" gradientTransform="translate(5383.28 43687.06) scale(104 -104)" gradientUnits="userSpaceOnUse"><stop offset="0" stop-color="#8fd0ff" stop-opacity=".9"/><stop offset=".45" stop-color="#244a66" stop-opacity=".95"/><stop offset="1" stop-color="#101820"/></radialGradient></defs><g class="uuid-e81453ad-a2f3-4bb4-a199-4dbd5917ffb5"><path class="uuid-3f03d2cc-788f-42c3-8dfb-16a18e4611e1" d="M7.36,173.04L28.3,24.27h31.74l24.7,79.32,24.54-79.32h31.74l20.94,148.77h-31.9l-10.63-85.63-29.12,85.63h-12.76l-27.65-85.63-10.63,85.63H7.36Z"/></g><circle class="uuid-21776849-7112-4aa5-9c9c-1e163f2486f6" cx="195.88" cy="121.15" r="55"/><circle class="uuid-c19fd0e0-d1d8-4561-b44d-0e64a216e15d" cx="195.88" cy="121.15" r="49.31"/><path class="uuid-8eeced3a-c1ce-464d-97d1-934e36525ca0" d="M195.88,87.02l29.39,17.07v34.14l-29.39,17.07-29.39-17.07v-34.14l29.39-17.07Z"/><path class="uuid-c52edf76-21c0-497b-9291-4328503d6cb8" d="M195.88,87.02l29.39,17.07-58.79,34.14,29.39,17.07,29.39-17.07-58.79-34.14,29.39-17.07Z"/><circle class="uuid-063ba646-9aa2-4795-b3ec-8c24d91c58d2" cx="178.81" cy="104.08" r="9.48"/><g class="uuid-e81453ad-a2f3-4bb4-a199-4dbd5917ffb5"><path class="uuid-3f03d2cc-788f-42c3-8dfb-16a18e4611e1" d="M253.09,79.19h23.06v11.21c6.29-8.42,13.34-12.63,21.15-12.63,9.68,0,17.07,5.69,22.17,17.08,5.18-11.5,12.57-17.26,22.17-17.26,3.06,0,5.94.62,8.66,1.87,2.72,1.25,5.05,3.2,7.01,5.87,1.95,2.67,3.5,6.14,4.65,10.41,1.15,4.27,1.72,9.43,1.72,15.48v59.25h-23.06v-45.01c0-4.62-.24-8.42-.7-11.39-.47-2.96-1.15-5.28-2.04-6.94-.89-1.66-1.93-2.79-3.12-3.38-1.19-.59-2.46-.89-3.82-.89-7.39,0-11.08,7.53-11.08,22.59v45.01h-23.06v-45.01c0-4.62-.21-8.45-.64-11.48-.43-3.02-1.04-5.43-1.85-7.21-.81-1.78-1.85-2.99-3.12-3.65-1.27-.65-2.76-.98-4.46-.98-1.45,0-2.8.3-4.08.89-1.27.59-2.4,1.75-3.38,3.47-.98,1.72-1.74,4.09-2.29,7.12-.55,3.02-.83,6.97-.83,11.83v45.01h-23.06v-91.27Z"/><path class="uuid-3f03d2cc-788f-42c3-8dfb-16a18e4611e1" d="M400.26,130.25c0,13.88,4.67,20.82,14.02,20.82,5.01,0,8.79-2.85,11.34-8.54h22.3c-4.5,20.88-15.76,31.31-33.77,31.31-5.52,0-10.58-1.16-15.16-3.47-4.59-2.31-8.52-5.6-11.79-9.88-3.27-4.27-5.8-9.37-7.58-15.3-1.78-5.93-2.68-12.57-2.68-19.93s.85-14.44,2.55-20.55c1.7-6.11,4.12-11.3,7.26-15.57,3.14-4.27,6.94-7.56,11.4-9.87,4.46-2.31,9.49-3.47,15.1-3.47s10.49,1.16,14.91,3.47c4.42,2.31,8.16,5.67,11.21,10.05,3.06,4.39,5.39,9.76,7.01,16.1,1.61,6.35,2.42,13.49,2.42,21.44v3.38h-48.55ZM427.27,111.57c-.76-4.51-2.34-8.12-4.71-10.85-2.38-2.73-5.27-4.09-8.66-4.09-3.57,0-6.48,1.31-8.73,3.91-2.25,2.61-3.68,6.29-4.27,11.03h26.38Z"/><path class="uuid-3f03d2cc-788f-42c3-8dfb-16a18e4611e1" d="M461.93,79.19h23.06v11.56c3.14-5.34,6.33-8.92,9.56-10.76,3.23-1.84,7.01-2.76,11.34-2.76,4.59,0,8.52,1.04,11.79,3.11,3.27,2.08,6.05,5.01,8.35,8.81,1.87,3.09,3.14,6.52,3.82,10.32.68,3.8,1.02,8.13,1.02,12.99v58h-23.06v-46.08c0-4.51-.24-8.15-.7-10.94-.47-2.79-1.3-5.01-2.48-6.67-1.02-1.42-2.17-2.43-3.44-3.02-1.27-.59-2.63-.89-4.08-.89-3.91,0-6.9,1.63-8.98,4.89-2.08,3.26-3.12,7.92-3.12,13.97v48.75h-23.06v-91.27Z"/><path class="uuid-3f03d2cc-788f-42c3-8dfb-16a18e4611e1" d="M572.27,106.05v64.41h-23.06v-64.41h-7.65v-26.87h7.65v-27.4h23.06v27.4h13.12v26.87h-13.12Z"/><path class="uuid-3f03d2cc-788f-42c3-8dfb-16a18e4611e1" d="M594.31,44.14c0-2.49.34-4.83,1.02-7.03.68-2.19,1.61-4.12,2.8-5.78,1.19-1.66,2.57-2.96,4.14-3.91,1.57-.95,3.25-1.42,5.03-1.42s3.46.48,5.03,1.42c1.57.95,2.95,2.25,4.14,3.91,1.19,1.66,2.12,3.59,2.8,5.78.68,2.2,1.02,4.54,1.02,7.03s-.34,4.83-1.02,7.03c-.68,2.2-1.61,4.12-2.8,5.78-1.19,1.66-2.57,2.97-4.14,3.91-1.57.95-3.25,1.42-5.03,1.42s-3.46-.47-5.03-1.42c-1.57-.95-2.95-2.25-4.14-3.91-1.19-1.66-2.12-3.59-2.8-5.78-.68-2.19-1.02-4.54-1.02-7.03ZM618.9,79.19v91.27h-23.06v-91.27h23.06Z"/><path class="uuid-3f03d2cc-788f-42c3-8dfb-16a18e4611e1" d="M685.16,79.19h23.19v91.27h-23.19v-10.14c-4.93,8.66-11.6,12.99-20,12.99-4.76,0-9.13-1.22-13.12-3.65-3.99-2.43-7.48-5.84-10.45-10.23-2.97-4.39-5.29-9.55-6.94-15.48-1.66-5.93-2.48-12.39-2.48-19.39,0-6.52.81-12.72,2.42-18.59,1.61-5.87,3.86-11,6.75-15.39,2.89-4.39,6.33-7.86,10.32-10.41,3.99-2.55,8.41-3.83,13.25-3.83,8.15,0,14.91,3.98,20.26,11.92v-9.07ZM656.11,124.56c0,2.97.38,5.72,1.15,8.27.76,2.55,1.8,4.78,3.12,6.67,1.32,1.9,2.89,3.38,4.71,4.45,1.83,1.07,3.8,1.6,5.92,1.6s3.97-.53,5.8-1.6c1.83-1.07,3.4-2.55,4.71-4.45,1.32-1.9,2.38-4.09,3.19-6.58.81-2.49,1.21-5.16,1.21-8.01s-.4-5.54-1.21-8.1c-.81-2.55-1.87-4.77-3.19-6.67-1.32-1.9-2.89-3.38-4.71-4.45-1.83-1.07-3.76-1.6-5.8-1.6s-4.1.53-5.92,1.6c-1.83,1.07-3.4,2.55-4.71,4.45-1.32,1.9-2.36,4.06-3.12,6.49-.76,2.43-1.15,5.07-1.15,7.92Z"/></g></svg>