<?xml version="1.0" encoding="UTF-8"?><svg id="_レイヤー_1" xmlns="http://www.w3.org/2000/svg" xmlns:xlink="http://www.w3.org/1999/xlink" viewBox="0 0 610.22 147.85"><defs><style>.cls-1{opacity:.25;}.cls-1,.cls-2{isolation:isolate;}.cls-1,.cls-3,.cls-4{stroke-width:3px;}.cls-1,.cls-4{fill:none;stroke:rgba(111,167,201,.35);}.cls-5{fill:#172c45;}.cls-3{fill:url(#_名称未設定グラデーション_2);stroke:#0b0f13;}.cls-6{fill:url(#_名称未設定グラデーション);}.cls-7{fill:rgba(255,255,255,.65);}</style><linearGradient id="_名称未設定グラデーション" x1="-110.71" y1="393.49" x2="-109.9" y2="393.49" gradientTransform="translate(12936.18 45742.97) scale(116 -116)" gradientUnits="userSpaceOnUse"><stop offset="0" stop-color="#d9d9d9"/><stop offset="1" stop-color="#bdbdbd"/></linearGradient><radialGradient id="_名称未設定グラデーション_2" cx="-110.34" cy="393.34" fx="-110.34" fy="393.34" r=".48" gradientTransform="translate(11618.38 41016.69) scale(104.03 -104.03)" gradientUnits="userSpaceOnUse"><stop offset="0" stop-color="#8fd0ff" stop-opacity=".9"/><stop offset=".45" stop-color="#244a66" stop-opacity=".95"/><stop offset="1" stop-color="#101820"/></radialGradient></defs><g class="cls-2"><path class="cls-5" d="M33.41,3.61l25.24,96.88h.3L82.84,3.61h33.41v140.88h-22.22V44.65h-.3l-26.45,99.84h-18.29L22.52,45.63h-.3v98.85H0V3.61h33.41Z"/></g><circle class="cls-6" cx="140.44" cy="97.99" r="47"/><circle class="cls-3" cx="139.94" cy="98.49" r="42"/><path class="cls-4" d="M139.94,68.99l25,14.52v29.03l-25,14.52-25-14.52v-29.03l25-14.52Z"/><path class="cls-1" d="M139.98,68.95l25.03,14.53-50.06,29.07,25.03,14.53,25.03-14.53-50.06-29.07,25.03-14.53Z"/><circle class="cls-7" cx="125.44" cy="82.99" r="8"/><g class="cls-2"><path class="cls-5" d="M186.81,53.2h23.06v11.21c6.29-8.42,13.34-12.63,21.15-12.63,9.68,0,17.07,5.69,22.17,17.08,5.18-11.5,12.57-17.26,22.17-17.26,3.06,0,5.94.62,8.66,1.87,2.72,1.25,5.05,3.2,7.01,5.87,1.95,2.67,3.5,6.14,4.65,10.41,1.15,4.27,1.72,9.43,1.72,15.48v59.25h-23.06v-45.01c0-4.62-.24-8.42-.7-11.39-.47-2.96-1.15-5.28-2.04-6.94-.89-1.66-1.93-2.79-3.12-3.38-1.19-.59-2.46-.89-3.82-.89-7.39,0-11.08,7.53-11.08,22.59v45.01h-23.06v-45.01c0-4.62-.21-8.45-.64-11.48-.43-3.02-1.04-5.43-1.85-7.21-.81-1.78-1.85-2.99-3.12-3.65-1.27-.65-2.76-.98-4.46-.98-1.45,0-2.8.3-4.08.89-1.27.59-2.4,1.75-3.38,3.47-.98,1.72-1.74,4.09-2.29,7.12-.55,3.02-.83,6.97-.83,11.83v45.01h-23.06V53.2Z"/><path class="cls-5" d="M327.61,104.26c0,13.88,4.67,20.82,14.02,20.82,5.01,0,8.79-2.85,11.34-8.54h22.3c-4.5,20.88-15.76,31.31-33.77,31.31-5.52,0-10.58-1.16-15.16-3.47-4.59-2.31-8.52-5.6-11.79-9.88-3.27-4.27-5.8-9.37-7.58-15.3-1.78-5.93-2.68-12.57-2.68-19.93s.85-14.44,2.55-20.55c1.7-6.11,4.12-11.3,7.26-15.57,3.14-4.27,6.94-7.56,11.4-9.87,4.46-2.31,9.49-3.47,15.1-3.47s10.49,1.16,14.91,3.47c4.42,2.31,8.16,5.67,11.21,10.05,3.06,4.39,5.39,9.76,7.01,16.1,1.61,6.35,2.42,13.49,2.42,21.44v3.38h-48.55ZM354.62,85.58c-.76-4.51-2.34-8.12-4.71-10.85-2.38-2.73-5.27-4.09-8.66-4.09-3.57,0-6.48,1.31-8.73,3.91-2.25,2.61-3.68,6.29-4.27,11.03h26.38Z"/><path class="cls-5" d="M382.91,53.2h23.06v11.56c3.14-5.34,6.33-8.92,9.56-10.76,3.23-1.84,7.01-2.76,11.34-2.76,4.59,0,8.52,1.04,11.79,3.11,3.27,2.08,6.05,5.01,8.35,8.81,1.87,3.09,3.14,6.52,3.82,10.32.68,3.8,1.02,8.13,1.02,12.99v58h-23.06v-46.08c0-4.51-.24-8.15-.7-10.94-.47-2.79-1.3-5.01-2.48-6.67-1.02-1.42-2.17-2.43-3.44-3.02-1.27-.59-2.63-.89-4.08-.89-3.91,0-6.9,1.63-8.98,4.89-2.08,3.26-3.12,7.92-3.12,13.97v48.75h-23.06V53.2Z"/><path class="cls-5" d="M486.88,80.06v64.41h-23.06v-64.41h-7.65v-26.87h7.65v-27.4h23.06v27.4h13.12v26.87h-13.12Z"/><path class="cls-5" d="M502.55,18.15c0-2.49.34-4.83,1.02-7.03.68-2.19,1.61-4.12,2.8-5.78,1.19-1.66,2.57-2.96,4.14-3.91,1.57-.95,3.25-1.42,5.03-1.42s3.46.48,5.03,1.42c1.57.95,2.95,2.25,4.14,3.91,1.19,1.66,2.12,3.59,2.8,5.78.68,2.2,1.02,4.54,1.02,7.03s-.34,4.83-1.02,7.03c-.68,2.2-1.61,4.12-2.8,5.78-1.19,1.66-2.57,2.97-4.14,3.91-1.57.95-3.25,1.42-5.03,1.42s-3.46-.47-5.03-1.42c-1.57-.95-2.95-2.25-4.14-3.91-1.19-1.66-2.12-3.59-2.8-5.78-.68-2.19-1.02-4.54-1.02-7.03ZM527.14,53.2v91.27h-23.06V53.2h23.06Z"/><path class="cls-5" d="M587.03,53.2h23.19v91.27h-23.19v-10.14c-4.93,8.66-11.6,12.99-20,12.99-4.76,0-9.13-1.22-13.12-3.65-3.99-2.43-7.48-5.84-10.45-10.23-2.97-4.39-5.29-9.55-6.94-15.48-1.66-5.93-2.48-12.39-2.48-19.39,0-6.52.81-12.72,2.42-18.59,1.61-5.87,3.86-11,6.75-15.39,2.89-4.39,6.33-7.86,10.32-10.41,3.99-2.55,8.41-3.83,13.25-3.83,8.15,0,14.91,3.98,20.26,11.92v-9.07ZM557.98,98.57c0,2.97.38,5.72,1.15,8.27.76,2.55,1.8,4.78,3.12,6.67,1.32,1.9,2.89,3.38,4.71,4.45,1.83,1.07,3.8,1.6,5.92,1.6s3.97-.53,5.8-1.6c1.83-1.07,3.4-2.55,4.71-4.45,1.32-1.9,2.38-4.09,3.19-6.58.81-2.49,1.21-5.16,1.21-8.01s-.4-5.54-1.21-8.1c-.81-2.55-1.87-4.77-3.19-6.67-1.32-1.9-2.89-3.38-4.71-4.45-1.83-1.07-3.76-1.6-5.8-1.6s-4.1.53-5.92,1.6c-1.83,1.07-3.4,2.55-4.71,4.45-1.32,1.9-2.36,4.06-3.12,6.49-.76,2.43-1.15,5.07-1.15,7.92Z"/></g></svg>